<svg xmlns="http://www.w3.org/2000/svg" width="512" height="512" viewBox="0 0 512 512" data-svgdocument="" id="_3Goba4MIoZWXpv_D3YzWi" class="fl-svgdocument" x="0" y="0" style="overflow: visible;" xmlns:xlink="http://www.w3.org/1999/xlink"><defs id="_ahicTeclJLXvrGDvXlvWD" transform="matrix(1.000000065449117, 0, 0, 1.000000065449117, 0.0000074748245934881465, 11.063147726424562)"></defs><g id="_ttsiO5aWgfgI9dScdb90H" transform="matrix(0.8078158671308795, 0, 0, 0.8078158671308795, 48.000006038281505, 58.13613723832862)"><polygon id="_iK8zcPzmv90arHuJ8dHp_" points="36.703,11.011 9.638,26.636 9.638,38.757 36.703,23.131 63.767,38.757 63.767,26.636   " fill="#1761a0" transform="matrix(1.3302321434020996, 0, 0, 1.3302321434020996, -12.820785522460938, 177.78671264648438)"></polygon><polygon id="_EvdYjmwpEee_oLcoDMbJs" points="63.298,89.092 36.233,73.467 36.233,61.348 63.298,76.973 90.362,61.348 90.362,73.467   " fill="#4c96d7" transform="matrix(1.3302321434020996, 0, 0, 1.3302321434020996, -12.28351879119873, 178.66650390625)"></polygon><polygon id="_ENK-PmC0r9u6aLgbi6Pg1" points="9.638,42.012 36.703,26.386 47.198,32.446 20.134,48.072 20.134,79.324 9.638,73.264   " fill="#4c96d7" transform="matrix(1.3302321434020996, 0, 0, 1.3302321434020996, -12.15572738647461, 177.95213317871094)"></polygon><polygon id="_L_yBvBmPCbNMW5_dWLtFZ" points="77.083,18.872 50.018,3.247 39.522,9.307 66.586,24.932 66.586,56.184 77.083,50.124   " fill="#4c96d7" transform="matrix(1.3302321434020996, 0, 0, 1.3302321434020996, -12.002666473388672, 178.13897705078125)"></polygon><polygon id="_mUjvX9AtBAUEBoPN452LJ" points="23.01,81.127 23.011,49.876 33.507,43.816 33.507,75.068 60.571,90.693 50.075,96.754   " fill="#1761a0" transform="matrix(1.3302321434020996, 0, 0, 1.3302321434020996, -12.651481628417969, 178.71014404296875)"></polygon><polygon id="_EQDmN8FyYEsJVmeMaMdzQ" points="90.362,58.092 90.362,26.84 79.866,20.78 79.866,52.031 52.802,67.658 63.298,73.719   " fill="#1761a0" transform="matrix(1.3302321434020996, 0, 0, 1.3302321434020996, -12.375923156738281, 178.7588348388672)"></polygon></g><path text="Runflow" text-anchor="start" font-size="100" letter-spacing="0" side="left" offset="0" dx="0" dy="0" space="preserve" href="" font-family="Offside" font-scale="contain" transform="matrix(0.6149625182151794, 0, 0, 0.6149625182151794, 143.51760864257812, 278.1386413574219)" x="0" y="0" fill="#1761a0" data-fl-textpath="" id="_7A4NOMCB8fINetzRO7sw3" d="M 24-37L 24-37L 32.7-37Q 46.3-37  46.3-44.8L 46.3-44.8L 46.3-60.7Q 46.3-68.5  32.65-68.5Q 19-68.5  19-60.7L 19-60.7L 19-1.8Q 19 0.5  15 0.5Q 11 0.5  11-1.8L 11-1.8L 11-59.7Q 11-68  16.9-71.75Q 22.8-75.5  32.6-75.5Q 42.4-75.5  48.35-71.75Q 54.3-68  54.3-59.7L 54.3-59.7L 54.3-45.8Q 54.3-36.5  45.6-34.2L 45.6-34.2Q 47.9-32.1  49.2-27.4L 49.2-27.4Q 56.3-1.9  56.3-1.3L 56.3-1.3Q 56.3 0.5  52.8 0.5Q 49.3 0.5  48.6-1.8L 48.6-1.8L 42.3-24.6Q 41.4-28.1  39.8-29.05Q 38.2-30  32.8-30L 32.8-30L 24-30Q 22-30  22-33.5Q 22-37  24-37ZM 118.7-58.2L 118.7-58.2L 118.7-14.3Q 118.7-6  112.75-2.25Q 106.80000000000001 1.5  97 1.5Q 87.2 1.5  81.30000000000001-2.25Q 75.4-6  75.4-14.3L 75.4-14.3L 75.4-58.2Q 75.4-60.5  79.4-60.5Q 83.4-60.5  83.4-58.2L 83.4-58.2L 83.4-13.3Q 83.4-5.5  97.05000000000001-5.5Q 110.7-5.5  110.7-13.3L 110.7-13.3L 110.7-58.2Q 110.7-60.5  114.7-60.5Q 118.7-60.5  118.7-58.2ZM 184-45.7L 184-45.7L 184-1.8Q 184 0.5  180 0.5Q 176 0.5  176-1.8L 176-1.8L 176-46.7Q 176-54.5  162.35-54.5Q 148.7-54.5  148.7-46.7L 148.7-46.7L 148.7-1.8Q 148.7 0.5  144.7 0.5Q 140.7 0.5  140.7-1.8L 140.7-1.8L 140.7-45.7Q 140.7-54  146.6-57.75Q 152.5-61.5  162.29999999999998-61.5Q 172.1-61.5  178.04999999999998-57.75Q 184-54  184-45.7ZM 203-60L 203-60L 210-60L 210-65.7Q 210-81.5  230.6-81.5L 230.6-81.5L 234.1-81.5Q 236.1-81.5  236.1-78Q 236.1-74.5  234.1-74.5L 234.1-74.5L 230.6-74.5Q 218-74.5  218-66.7L 218-66.7L 218-60L 229.5-60Q 231.5-60  231.5-56.5Q 231.5-53  229.5-53L 229.5-53L 218-53L 218 10.3Q 218 16.7  216.15 20.85Q 214.3 25  212.1 25L 212.1 25Q 210.8 25  208.9 23.65Q 207 22.3  207 21.1L 207 21.1Q 207 20.8  207.8 19.6L 207.8 19.6Q 210 15.8  210 9.3L 210 9.3L 210-53L 203-53Q 201-53  201-56.5Q 201-60  203-60ZM 252.5-77.7L 252.5-77.7L 252.5-11.7Q 252.5-8.5  254-5.75Q 255.5-3  255.5-2.9L 255.5-2.9Q 255.5-1.7  253.6-0.35Q 251.7 1  250.4 1L 250.4 1Q 248.3 1  246.4-2.65Q 244.5-6.3  244.5-10.7L 244.5-10.7L 244.5-77.7Q 244.5-80  248.5-80Q 252.5-80  252.5-77.7ZM 308.8-13.3L 308.8-13.3L 308.8-46.7Q 308.8-54.5  295.15-54.5Q 281.5-54.5  281.5-46.7L 281.5-46.7L 281.5-13.3Q 281.5-5.5  295.15-5.5Q 308.8-5.5  308.8-13.3ZM 316.8-45.7L 316.8-45.7L 316.8-14.3Q 316.8-6  310.9-2.25Q 305 1.5  295.2 1.5Q 285.4 1.5  279.45-2.25Q 273.5-6  273.5-14.3L 273.5-14.3L 273.5-45.7Q 273.5-54  279.4-57.75Q 285.3-61.5  295.1-61.5Q 304.9-61.5  310.85-57.75Q 316.8-54  316.8-45.7ZM 363.5-13.3L 370-54.1Q 370.3-56.3  373.75-56.3Q 377.2-56.3  377.6-54.1L 377.6-54.1L 384.2-13.3Q 384.8-9.1  386.35-7.3Q 387.90000000000003-5.5  391.5-5.5Q 395.1-5.5  396.35-7.2Q 397.6-8.9  398.4-13.3L 398.4-13.3L 405.9-58.2Q 406.3-60.5  410.1-60.5Q 413.9-60.5  413.9-58.7L 413.9-58.7L 406.20000000000005-12.2Q 405-4.9  401.95000000000005-1.7Q 398.9 1.5  391.45000000000005 1.5Q 384 1.5  380.85-1.7Q 377.7-4.9  376.8-12.2L 376.8-12.2L 374.3-32.9L 373.3-32.9L 370.90000000000003-12.2Q 370-4.9  366.85-1.7Q 363.7 1.5  356.25 1.5Q 348.8 1.5  345.75-1.7Q 342.7-4.9  341.5-12.2L 341.5-12.2L 333.8-58.7Q 333.8-60.5  337.6-60.5Q 341.40000000000003-60.5  341.8-58.2L 341.8-58.2L 349.3-13.3Q 350.1-8.9  351.35-7.2Q 352.6-5.5  356.2-5.5Q 359.8-5.5  361.35-7.3Q 362.90000000000003-9.1  363.5-13.3L 363.5-13.3Z" font-weight="400" font-style="normal"></path></svg>
