<?xml version="1.0" encoding="UTF-8" standalone="no"?>
<!DOCTYPE svg PUBLIC "-//W3C//DTD SVG 1.1//EN"
 "http://www.w3.org/Graphics/SVG/1.1/DTD/svg11.dtd">
<!-- Generated by graphviz version 2.47.3 (20210619.1520)
 -->
<!-- Pages: 1 -->
<svg width="479pt" height="332pt"
 viewBox="0.00 0.00 479.28 332.00" xmlns="http://www.w3.org/2000/svg" xmlns:xlink="http://www.w3.org/1999/xlink">
<g id="graph0" class="graph" transform="scale(1 1) rotate(0) translate(4 328)">
<polygon fill="white" stroke="transparent" points="-4,4 -4,-328 475.28,-328 475.28,4 -4,4"/>
<!-- task.bash_run.echo -->
<g id="node1" class="node">
<title>task.bash_run.echo</title>
<ellipse fill="none" stroke="black" cx="198.14" cy="-306" rx="80.69" ry="18"/>
<text text-anchor="middle" x="198.14" y="-302.3" font-family="Times,serif" font-size="14.00">task.bash_run.echo</text>
</g>
<!-- task.bash_run.echo1 -->
<g id="node2" class="node">
<title>task.bash_run.echo1</title>
<ellipse fill="none" stroke="black" cx="85.14" cy="-90" rx="85.29" ry="18"/>
<text text-anchor="middle" x="85.14" y="-86.3" font-family="Times,serif" font-size="14.00">task.bash_run.echo1</text>
</g>
<!-- task.bash_run.echo&#45;&gt;task.bash_run.echo1 -->
<g id="edge1" class="edge">
<title>task.bash_run.echo&#45;&gt;task.bash_run.echo1</title>
<path fill="none" stroke="black" d="M154.87,-290.8C136.26,-282.45 116.08,-269.93 104.14,-252 77.26,-211.62 77.96,-152.64 81.29,-118.4"/>
<polygon fill="black" stroke="black" points="84.8,-118.54 82.43,-108.21 77.84,-117.76 84.8,-118.54"/>
</g>
<!-- task.bash_run.echo2 -->
<g id="node3" class="node">
<title>task.bash_run.echo2</title>
<ellipse fill="none" stroke="black" cx="198.14" cy="-234" rx="85.29" ry="18"/>
<text text-anchor="middle" x="198.14" y="-230.3" font-family="Times,serif" font-size="14.00">task.bash_run.echo2</text>
</g>
<!-- task.bash_run.echo&#45;&gt;task.bash_run.echo2 -->
<g id="edge2" class="edge">
<title>task.bash_run.echo&#45;&gt;task.bash_run.echo2</title>
<path fill="none" stroke="black" d="M198.14,-287.7C198.14,-279.98 198.14,-270.71 198.14,-262.11"/>
<polygon fill="black" stroke="black" points="201.64,-262.1 198.14,-252.1 194.64,-262.1 201.64,-262.1"/>
</g>
<!-- task.bash_run.echo3 -->
<g id="node4" class="node">
<title>task.bash_run.echo3</title>
<ellipse fill="none" stroke="black" cx="386.14" cy="-234" rx="85.29" ry="18"/>
<text text-anchor="middle" x="386.14" y="-230.3" font-family="Times,serif" font-size="14.00">task.bash_run.echo3</text>
</g>
<!-- task.bash_run.echo&#45;&gt;task.bash_run.echo3 -->
<g id="edge3" class="edge">
<title>task.bash_run.echo&#45;&gt;task.bash_run.echo3</title>
<path fill="none" stroke="black" d="M238.01,-290.15C266.7,-279.47 305.6,-264.99 336.34,-253.54"/>
<polygon fill="black" stroke="black" points="337.86,-256.71 346.01,-249.94 335.42,-250.15 337.86,-256.71"/>
</g>
<!-- task.bash_run.echo7 -->
<g id="node5" class="node">
<title>task.bash_run.echo7</title>
<ellipse fill="none" stroke="black" cx="179.14" cy="-18" rx="85.29" ry="18"/>
<text text-anchor="middle" x="179.14" y="-14.3" font-family="Times,serif" font-size="14.00">task.bash_run.echo7</text>
</g>
<!-- task.bash_run.echo1&#45;&gt;task.bash_run.echo7 -->
<g id="edge4" class="edge">
<title>task.bash_run.echo1&#45;&gt;task.bash_run.echo7</title>
<path fill="none" stroke="black" d="M107.42,-72.41C119.83,-63.17 135.45,-51.54 148.95,-41.49"/>
<polygon fill="black" stroke="black" points="151.1,-44.25 157.03,-35.47 146.92,-38.64 151.1,-44.25"/>
</g>
<!-- task.bash_run.echo4 -->
<g id="node6" class="node">
<title>task.bash_run.echo4</title>
<ellipse fill="none" stroke="black" cx="198.14" cy="-162" rx="85.29" ry="18"/>
<text text-anchor="middle" x="198.14" y="-158.3" font-family="Times,serif" font-size="14.00">task.bash_run.echo4</text>
</g>
<!-- task.bash_run.echo2&#45;&gt;task.bash_run.echo4 -->
<g id="edge5" class="edge">
<title>task.bash_run.echo2&#45;&gt;task.bash_run.echo4</title>
<path fill="none" stroke="black" d="M198.14,-215.7C198.14,-207.98 198.14,-198.71 198.14,-190.11"/>
<polygon fill="black" stroke="black" points="201.64,-190.1 198.14,-180.1 194.64,-190.1 201.64,-190.1"/>
</g>
<!-- task.bash_run.echo5 -->
<g id="node7" class="node">
<title>task.bash_run.echo5</title>
<ellipse fill="none" stroke="black" cx="386.14" cy="-162" rx="85.29" ry="18"/>
<text text-anchor="middle" x="386.14" y="-158.3" font-family="Times,serif" font-size="14.00">task.bash_run.echo5</text>
</g>
<!-- task.bash_run.echo3&#45;&gt;task.bash_run.echo5 -->
<g id="edge6" class="edge">
<title>task.bash_run.echo3&#45;&gt;task.bash_run.echo5</title>
<path fill="none" stroke="black" d="M386.14,-215.7C386.14,-207.98 386.14,-198.71 386.14,-190.11"/>
<polygon fill="black" stroke="black" points="389.64,-190.1 386.14,-180.1 382.64,-190.1 389.64,-190.1"/>
</g>
<!-- task.bash_run.echo6 -->
<g id="node8" class="node">
<title>task.bash_run.echo6</title>
<ellipse fill="none" stroke="black" cx="273.14" cy="-90" rx="85.29" ry="18"/>
<text text-anchor="middle" x="273.14" y="-86.3" font-family="Times,serif" font-size="14.00">task.bash_run.echo6</text>
</g>
<!-- task.bash_run.echo4&#45;&gt;task.bash_run.echo6 -->
<g id="edge7" class="edge">
<title>task.bash_run.echo4&#45;&gt;task.bash_run.echo6</title>
<path fill="none" stroke="black" d="M216.3,-144.05C225.69,-135.28 237.32,-124.43 247.61,-114.83"/>
<polygon fill="black" stroke="black" points="250.23,-117.17 255.15,-107.79 245.45,-112.06 250.23,-117.17"/>
</g>
<!-- task.bash_run.echo5&#45;&gt;task.bash_run.echo6 -->
<g id="edge8" class="edge">
<title>task.bash_run.echo5&#45;&gt;task.bash_run.echo6</title>
<path fill="none" stroke="black" d="M359.93,-144.76C344.53,-135.22 324.86,-123.04 308.15,-112.68"/>
<polygon fill="black" stroke="black" points="309.56,-109.43 299.21,-107.15 305.87,-115.39 309.56,-109.43"/>
</g>
<!-- task.bash_run.echo6&#45;&gt;task.bash_run.echo7 -->
<g id="edge9" class="edge">
<title>task.bash_run.echo6&#45;&gt;task.bash_run.echo7</title>
<path fill="none" stroke="black" d="M250.87,-72.41C238.46,-63.17 222.83,-51.54 209.34,-41.49"/>
<polygon fill="black" stroke="black" points="211.37,-38.64 201.26,-35.47 207.19,-44.25 211.37,-38.64"/>
</g>
</g>
</svg>
